<?xml version='1.0' encoding='utf-8'?>
<svg xmlns="http://www.w3.org/2000/svg" class="diagram" version="1.1" height="425" width="560" viewBox="0 0 560.0 425.0">
<g transform="translate(8,16)">
<path d="M 416,0 L 504,0" fill="none" stroke="black"/>
<path d="M 416,32 L 504,32" fill="none" stroke="black"/>
<path d="M 0,112 L 448,112" fill="none" stroke="black"/>
<path d="M 464,112 L 544,112" fill="none" stroke="black"/>
<path d="M 16,128 L 448,128" fill="none" stroke="black"/>
<path d="M 464,128 L 528,128" fill="none" stroke="black"/>
<path d="M 152,160 L 256,160" fill="none" stroke="black"/>
<path d="M 304,160 L 336,160" fill="none" stroke="black"/>
<path d="M 400,160 L 456,160" fill="none" stroke="black"/>
<path d="M 456,160 L 512,160" fill="none" stroke="black"/>
<path d="M 256,192 L 280,192" fill="none" stroke="black"/>
<path d="M 352,192 L 400,192" fill="none" stroke="black"/>
<path d="M 152,224 L 200,224" fill="none" stroke="black"/>
<path d="M 200,224 L 256,224" fill="none" stroke="black"/>
<path d="M 304,224 L 336,224" fill="none" stroke="black"/>
<path d="M 400,224 L 512,224" fill="none" stroke="black"/>
<path d="M 16,240 L 192,240" fill="none" stroke="black"/>
<path d="M 208,240 L 528,240" fill="none" stroke="black"/>
<path d="M 104,256 L 200,256" fill="none" stroke="black"/>
<path d="M 200,256 L 320,256" fill="none" stroke="black"/>
<path d="M 320,256 L 440,256" fill="none" stroke="black"/>
<path d="M 16,272 L 80,272" fill="none" stroke="black"/>
<path d="M 96,272 L 192,272" fill="none" stroke="black"/>
<path d="M 208,272 L 312,272" fill="none" stroke="black"/>
<path d="M 328,272 L 448,272" fill="none" stroke="black"/>
<path d="M 464,272 L 528,272" fill="none" stroke="black"/>
<path d="M 32,304 L 88,304" fill="none" stroke="black"/>
<path d="M 88,304 L 136,304" fill="none" stroke="black"/>
<path d="M 152,304 L 200,304" fill="none" stroke="black"/>
<path d="M 200,304 L 264,304" fill="none" stroke="black"/>
<path d="M 280,304 L 320,304" fill="none" stroke="black"/>
<path d="M 320,304 L 392,304" fill="none" stroke="black"/>
<path d="M 408,304 L 456,304" fill="none" stroke="black"/>
<path d="M 456,304 L 512,304" fill="none" stroke="black"/>
<path d="M 32,352 L 136,352" fill="none" stroke="black"/>
<path d="M 152,352 L 264,352" fill="none" stroke="black"/>
<path d="M 280,352 L 392,352" fill="none" stroke="black"/>
<path d="M 408,352 L 512,352" fill="none" stroke="black"/>
<path d="M 16,384 L 528,384" fill="none" stroke="black"/>
<path d="M 0,400 L 544,400" fill="none" stroke="black"/>
<path d="M 0,112 L 0,400" fill="none" stroke="black"/>
<path d="M 16,128 L 16,240" fill="none" stroke="black"/>
<path d="M 16,272 L 16,384" fill="none" stroke="black"/>
<path d="M 32,304 L 32,352" fill="none" stroke="black"/>
<path d="M 88,272 L 88,304" fill="none" stroke="black"/>
<path d="M 136,304 L 136,352" fill="none" stroke="black"/>
<path d="M 152,160 L 152,224" fill="none" stroke="black"/>
<path d="M 152,304 L 152,352" fill="none" stroke="black"/>
<path d="M 200,224 L 200,256" fill="none" stroke="black"/>
<path d="M 200,256 L 200,304" fill="none" stroke="black"/>
<path d="M 256,160 L 256,192" fill="none" stroke="black"/>
<path d="M 256,192 L 256,224" fill="none" stroke="black"/>
<path d="M 264,304 L 264,352" fill="none" stroke="black"/>
<path d="M 280,304 L 280,352" fill="none" stroke="black"/>
<path d="M 288,176 L 288,208" fill="none" stroke="black"/>
<path d="M 320,256 L 320,304" fill="none" stroke="black"/>
<path d="M 352,176 L 352,192" fill="none" stroke="black"/>
<path d="M 352,192 L 352,208" fill="none" stroke="black"/>
<path d="M 392,304 L 392,352" fill="none" stroke="black"/>
<path d="M 400,160 L 400,192" fill="none" stroke="black"/>
<path d="M 400,192 L 400,224" fill="none" stroke="black"/>
<path d="M 408,304 L 408,352" fill="none" stroke="black"/>
<path d="M 416,0 L 416,32" fill="none" stroke="black"/>
<path d="M 456,48 L 456,160" fill="none" stroke="black"/>
<path d="M 456,272 L 456,304" fill="none" stroke="black"/>
<path d="M 504,0 L 504,32" fill="none" stroke="black"/>
<path d="M 512,160 L 512,224" fill="none" stroke="black"/>
<path d="M 512,304 L 512,352" fill="none" stroke="black"/>
<path d="M 528,128 L 528,240" fill="none" stroke="black"/>
<path d="M 528,272 L 528,384" fill="none" stroke="black"/>
<path d="M 544,112 L 544,400" fill="none" stroke="black"/>
<polygon points="288.000000,192.000000 276.000000,186.399994 276.000000,197.600006" transform="rotate(0.000000, 280.000000, 192.000000)" fill="black"/>
<path d="M 456,40 L 456,48" fill="none" stroke="black"/>
<polygon points="472.000000,48.000000 460.000000,42.400002 460.000000,53.599998" transform="rotate(270.000000, 456.000000, 48.000000)" fill="black"/>
<path d="M 304,160 A 16,16 0 0,0 288,176" fill="none" stroke="black"/>
<path d="M 336,160 A 16,16 0 0,1 352,176" fill="none" stroke="black"/>
<path d="M 288,208 A 16,16 0 0,0 304,224" fill="none" stroke="black"/>
<path d="M 352,208 A 16,16 0 0,1 336,224" fill="none" stroke="black"/>
<path d="M 104,256 A 16,16 0 0,0 88,272" fill="none" stroke="black"/>
<path d="M 440,256 A 16,16 0 0,1 456,272" fill="none" stroke="black"/>
<circle cx="88" cy="304" r="6" fill="white" stroke="black"/>
<circle cx="200" cy="304" r="6" fill="white" stroke="black"/>
<circle cx="320" cy="304" r="6" fill="white" stroke="black"/>
<circle cx="352" cy="192" r="6" fill="white" stroke="black"/>
<circle cx="456" cy="304" r="6" fill="white" stroke="black"/>
<text text-anchor="middle" font-family="monospace" x="464" y="212" fill="black" font-size="1em">e</text>
<text text-anchor="middle" font-family="monospace" x="320" y="324" fill="black" font-size="1em">l</text>
<text text-anchor="middle" font-family="monospace" x="80" y="340" fill="black" font-size="1em">R</text>
<text text-anchor="middle" font-family="monospace" x="440" y="20" fill="black" font-size="1em">e</text>
<text text-anchor="middle" font-family="monospace" x="448" y="20" fill="black" font-size="1em">r</text>
<text text-anchor="middle" font-family="monospace" x="184" y="196" fill="black" font-size="1em">o</text>
<text text-anchor="middle" font-family="monospace" x="192" y="196" fill="black" font-size="1em">t</text>
<text text-anchor="middle" font-family="monospace" x="472" y="20" fill="black" font-size="1em">i</text>
<text text-anchor="middle" font-family="monospace" x="32" y="148" fill="black" font-size="1em">A</text>
<text text-anchor="middle" font-family="monospace" x="360" y="324" fill="black" font-size="1em">i</text>
<text text-anchor="middle" font-family="monospace" x="440" y="324" fill="black" font-size="1em">A</text>
<text text-anchor="middle" font-family="monospace" x="192" y="148" fill="black" font-size="1em">t</text>
<text text-anchor="middle" font-family="monospace" x="64" y="324" fill="black" font-size="1em">d</text>
<text text-anchor="middle" font-family="monospace" x="312" y="340" fill="black" font-size="1em">a</text>
<text text-anchor="middle" font-family="monospace" x="432" y="20" fill="black" font-size="1em">V</text>
<text text-anchor="middle" font-family="monospace" x="424" y="84" fill="black" font-size="1em">n</text>
<text text-anchor="middle" font-family="monospace" x="144" y="148" fill="black" font-size="1em">r</text>
<text text-anchor="middle" font-family="monospace" x="152" y="148" fill="black" font-size="1em">o</text>
<text text-anchor="middle" font-family="monospace" x="328" y="212" fill="black" font-size="1em">t</text>
<text text-anchor="middle" font-family="monospace" x="464" y="340" fill="black" font-size="1em">e</text>
<text text-anchor="middle" font-family="monospace" x="456" y="340" fill="black" font-size="1em">m</text>
<text text-anchor="middle" font-family="monospace" x="488" y="340" fill="black" font-size="1em">r</text>
<text text-anchor="middle" font-family="monospace" x="56" y="372" fill="black" font-size="1em">g</text>
<text text-anchor="middle" font-family="monospace" x="384" y="84" fill="black" font-size="1em">E</text>
<text text-anchor="middle" font-family="monospace" x="160" y="148" fill="black" font-size="1em">n</text>
<text text-anchor="middle" font-family="monospace" x="320" y="212" fill="black" font-size="1em">a</text>
<text text-anchor="middle" font-family="monospace" x="312" y="324" fill="black" font-size="1em">p</text>
<text text-anchor="middle" font-family="monospace" x="216" y="324" fill="black" font-size="1em">a</text>
<text text-anchor="middle" font-family="monospace" x="136" y="372" fill="black" font-size="1em">n</text>
<text text-anchor="middle" font-family="monospace" x="160" y="372" fill="black" font-size="1em">n</text>
<text text-anchor="middle" font-family="monospace" x="440" y="84" fill="black" font-size="1em">e</text>
<text text-anchor="middle" font-family="monospace" x="96" y="148" fill="black" font-size="1em">g</text>
<text text-anchor="middle" font-family="monospace" x="320" y="196" fill="black" font-size="1em">o</text>
<text text-anchor="middle" font-family="monospace" x="480" y="196" fill="black" font-size="1em">i</text>
<text text-anchor="middle" font-family="monospace" x="120" y="324" fill="black" font-size="1em">e</text>
<text text-anchor="middle" font-family="monospace" x="120" y="148" fill="black" font-size="1em">n</text>
<text text-anchor="middle" font-family="monospace" x="304" y="196" fill="black" font-size="1em">B</text>
<text text-anchor="middle" font-family="monospace" x="48" y="324" fill="black" font-size="1em">U</text>
<text text-anchor="middle" font-family="monospace" x="112" y="324" fill="black" font-size="1em">l</text>
<text text-anchor="middle" font-family="monospace" x="416" y="212" fill="black" font-size="1em">S</text>
<text text-anchor="middle" font-family="monospace" x="440" y="340" fill="black" font-size="1em">r</text>
<text text-anchor="middle" font-family="monospace" x="456" y="20" fill="black" font-size="1em">i</text>
<text text-anchor="middle" font-family="monospace" x="432" y="84" fill="black" font-size="1em">c</text>
<text text-anchor="middle" font-family="monospace" x="168" y="196" fill="black" font-size="1em">B</text>
<text text-anchor="middle" font-family="monospace" x="328" y="196" fill="black" font-size="1em">t</text>
<text text-anchor="middle" font-family="monospace" x="424" y="340" fill="black" font-size="1em">P</text>
<text text-anchor="middle" font-family="monospace" x="448" y="340" fill="black" font-size="1em">a</text>
<text text-anchor="middle" font-family="monospace" x="408" y="84" fill="black" font-size="1em">d</text>
<text text-anchor="middle" font-family="monospace" x="168" y="148" fill="black" font-size="1em">m</text>
<text text-anchor="middle" font-family="monospace" x="304" y="324" fill="black" font-size="1em">p</text>
<text text-anchor="middle" font-family="monospace" x="376" y="324" fill="black" font-size="1em">n</text>
<text text-anchor="middle" font-family="monospace" x="336" y="324" fill="black" font-size="1em">c</text>
<text text-anchor="middle" font-family="monospace" x="64" y="340" fill="black" font-size="1em">A</text>
<text text-anchor="middle" font-family="monospace" x="320" y="340" fill="black" font-size="1em">d</text>
<text text-anchor="middle" font-family="monospace" x="96" y="372" fill="black" font-size="1em">n</text>
<text text-anchor="middle" font-family="monospace" x="168" y="180" fill="black" font-size="1em">M</text>
<text text-anchor="middle" font-family="monospace" x="232" y="196" fill="black" font-size="1em">e</text>
<text text-anchor="middle" font-family="monospace" x="176" y="324" fill="black" font-size="1em">p</text>
<text text-anchor="middle" font-family="monospace" x="184" y="324" fill="black" font-size="1em">p</text>
<text text-anchor="middle" font-family="monospace" x="296" y="340" fill="black" font-size="1em">L</text>
<text text-anchor="middle" font-family="monospace" x="304" y="340" fill="black" font-size="1em">o</text>
<text text-anchor="middle" font-family="monospace" x="64" y="372" fill="black" font-size="1em">e</text>
<text text-anchor="middle" font-family="monospace" x="312" y="180" fill="black" font-size="1em">a</text>
<text text-anchor="middle" font-family="monospace" x="488" y="196" fill="black" font-size="1em">o</text>
<text text-anchor="middle" font-family="monospace" x="424" y="324" fill="black" font-size="1em">P</text>
<text text-anchor="middle" font-family="monospace" x="96" y="340" fill="black" font-size="1em">T</text>
<text text-anchor="middle" font-family="monospace" x="320" y="180" fill="black" font-size="1em">i</text>
<text text-anchor="middle" font-family="monospace" x="312" y="196" fill="black" font-size="1em">o</text>
<text text-anchor="middle" font-family="monospace" x="344" y="324" fill="black" font-size="1em">a</text>
<text text-anchor="middle" font-family="monospace" x="224" y="324" fill="black" font-size="1em">t</text>
<text text-anchor="middle" font-family="monospace" x="400" y="84" fill="black" font-size="1em">i</text>
<text text-anchor="middle" font-family="monospace" x="208" y="196" fill="black" font-size="1em">o</text>
<text text-anchor="middle" font-family="monospace" x="432" y="196" fill="black" font-size="1em">t</text>
<text text-anchor="middle" font-family="monospace" x="424" y="212" fill="black" font-size="1em">e</text>
<text text-anchor="middle" font-family="monospace" x="296" y="324" fill="black" font-size="1em">A</text>
<text text-anchor="middle" font-family="monospace" x="176" y="340" fill="black" font-size="1em">o</text>
<text text-anchor="middle" font-family="monospace" x="72" y="372" fill="black" font-size="1em">t</text>
<text text-anchor="middle" font-family="monospace" x="416" y="84" fill="black" font-size="1em">e</text>
<text text-anchor="middle" font-family="monospace" x="328" y="180" fill="black" font-size="1em">n</text>
<text text-anchor="middle" font-family="monospace" x="224" y="196" fill="black" font-size="1em">d</text>
<text text-anchor="middle" font-family="monospace" x="432" y="212" fill="black" font-size="1em">r</text>
<text text-anchor="middle" font-family="monospace" x="312" y="212" fill="black" font-size="1em">t</text>
<text text-anchor="middle" font-family="monospace" x="88" y="324" fill="black" font-size="1em">e</text>
<text text-anchor="middle" font-family="monospace" x="328" y="340" fill="black" font-size="1em">e</text>
<text text-anchor="middle" font-family="monospace" x="40" y="148" fill="black" font-size="1em">t</text>
<text text-anchor="middle" font-family="monospace" x="424" y="180" fill="black" font-size="1em">n</text>
<text text-anchor="middle" font-family="monospace" x="416" y="196" fill="black" font-size="1em">A</text>
<text text-anchor="middle" font-family="monospace" x="448" y="196" fill="black" font-size="1em">s</text>
<text text-anchor="middle" font-family="monospace" x="432" y="324" fill="black" font-size="1em">S</text>
<text text-anchor="middle" font-family="monospace" x="184" y="148" fill="black" font-size="1em">n</text>
<text text-anchor="middle" font-family="monospace" x="176" y="180" fill="black" font-size="1em">a</text>
<text text-anchor="middle" font-family="monospace" x="440" y="180" fill="black" font-size="1em">t</text>
<text text-anchor="middle" font-family="monospace" x="304" y="212" fill="black" font-size="1em">S</text>
<text text-anchor="middle" font-family="monospace" x="456" y="212" fill="black" font-size="1em">c</text>
<text text-anchor="middle" font-family="monospace" x="200" y="324" fill="black" font-size="1em">i</text>
<text text-anchor="middle" font-family="monospace" x="472" y="340" fill="black" font-size="1em">t</text>
<text text-anchor="middle" font-family="monospace" x="464" y="20" fill="black" font-size="1em">f</text>
<text text-anchor="middle" font-family="monospace" x="240" y="196" fill="black" font-size="1em">r</text>
<text text-anchor="middle" font-family="monospace" x="456" y="324" fill="black" font-size="1em">R</text>
<text text-anchor="middle" font-family="monospace" x="168" y="340" fill="black" font-size="1em">R</text>
<text text-anchor="middle" font-family="monospace" x="56" y="148" fill="black" font-size="1em">e</text>
<text text-anchor="middle" font-family="monospace" x="80" y="148" fill="black" font-size="1em">i</text>
<text text-anchor="middle" font-family="monospace" x="192" y="180" fill="black" font-size="1em">n</text>
<text text-anchor="middle" font-family="monospace" x="440" y="196" fill="black" font-size="1em">e</text>
<text text-anchor="middle" font-family="monospace" x="440" y="212" fill="black" font-size="1em">v</text>
<text text-anchor="middle" font-family="monospace" x="168" y="324" fill="black" font-size="1em">A</text>
<text text-anchor="middle" font-family="monospace" x="336" y="340" fill="black" font-size="1em">r</text>
<text text-anchor="middle" font-family="monospace" x="464" y="196" fill="black" font-size="1em">a</text>
<text text-anchor="middle" font-family="monospace" x="208" y="324" fill="black" font-size="1em">c</text>
<text text-anchor="middle" font-family="monospace" x="352" y="324" fill="black" font-size="1em">t</text>
<text text-anchor="middle" font-family="monospace" x="152" y="372" fill="black" font-size="1em">e</text>
<text text-anchor="middle" font-family="monospace" x="48" y="340" fill="black" font-size="1em">P</text>
<text text-anchor="middle" font-family="monospace" x="88" y="372" fill="black" font-size="1em">E</text>
<text text-anchor="middle" font-family="monospace" x="144" y="372" fill="black" font-size="1em">m</text>
<text text-anchor="middle" font-family="monospace" x="72" y="148" fill="black" font-size="1em">t</text>
<text text-anchor="middle" font-family="monospace" x="456" y="180" fill="black" font-size="1em">a</text>
<text text-anchor="middle" font-family="monospace" x="248" y="324" fill="black" font-size="1em">n</text>
<text text-anchor="middle" font-family="monospace" x="472" y="324" fill="black" font-size="1em">T</text>
<text text-anchor="middle" font-family="monospace" x="392" y="84" fill="black" font-size="1em">v</text>
<text text-anchor="middle" font-family="monospace" x="176" y="148" fill="black" font-size="1em">e</text>
<text text-anchor="middle" font-family="monospace" x="416" y="180" fill="black" font-size="1em">I</text>
<text text-anchor="middle" font-family="monospace" x="448" y="180" fill="black" font-size="1em">i</text>
<text text-anchor="middle" font-family="monospace" x="32" y="372" fill="black" font-size="1em">T</text>
<text text-anchor="middle" font-family="monospace" x="64" y="148" fill="black" font-size="1em">s</text>
<text text-anchor="middle" font-family="monospace" x="176" y="196" fill="black" font-size="1em">o</text>
<text text-anchor="middle" font-family="monospace" x="456" y="196" fill="black" font-size="1em">t</text>
<text text-anchor="middle" font-family="monospace" x="328" y="324" fill="black" font-size="1em">i</text>
<text text-anchor="middle" font-family="monospace" x="104" y="372" fill="black" font-size="1em">v</text>
<text text-anchor="middle" font-family="monospace" x="488" y="20" fill="black" font-size="1em">r</text>
<text text-anchor="middle" font-family="monospace" x="496" y="196" fill="black" font-size="1em">n</text>
<text text-anchor="middle" font-family="monospace" x="80" y="324" fill="black" font-size="1em">t</text>
<text text-anchor="middle" font-family="monospace" x="192" y="324" fill="black" font-size="1em">l</text>
<text text-anchor="middle" font-family="monospace" x="104" y="324" fill="black" font-size="1em">b</text>
<text text-anchor="middle" font-family="monospace" x="184" y="340" fill="black" font-size="1em">T</text>
<text text-anchor="middle" font-family="monospace" x="40" y="372" fill="black" font-size="1em">a</text>
<text text-anchor="middle" font-family="monospace" x="128" y="148" fill="black" font-size="1em">v</text>
<text text-anchor="middle" font-family="monospace" x="304" y="180" fill="black" font-size="1em">M</text>
<text text-anchor="middle" font-family="monospace" x="448" y="212" fill="black" font-size="1em">i</text>
<text text-anchor="middle" font-family="monospace" x="72" y="324" fill="black" font-size="1em">a</text>
<text text-anchor="middle" font-family="monospace" x="480" y="20" fill="black" font-size="1em">e</text>
<text text-anchor="middle" font-family="monospace" x="88" y="148" fill="black" font-size="1em">n</text>
<text text-anchor="middle" font-family="monospace" x="464" y="324" fill="black" font-size="1em">o</text>
<text text-anchor="middle" font-family="monospace" x="496" y="340" fill="black" font-size="1em">s</text>
<text text-anchor="middle" font-family="monospace" x="200" y="196" fill="black" font-size="1em">l</text>
<text text-anchor="middle" font-family="monospace" x="96" y="324" fill="black" font-size="1em">a</text>
<text text-anchor="middle" font-family="monospace" x="88" y="340" fill="black" font-size="1em">o</text>
<text text-anchor="middle" font-family="monospace" x="432" y="340" fill="black" font-size="1em">a</text>
<text text-anchor="middle" font-family="monospace" x="112" y="372" fill="black" font-size="1em">i</text>
<text text-anchor="middle" font-family="monospace" x="120" y="372" fill="black" font-size="1em">r</text>
<text text-anchor="middle" font-family="monospace" x="48" y="148" fill="black" font-size="1em">t</text>
<text text-anchor="middle" font-family="monospace" x="424" y="196" fill="black" font-size="1em">t</text>
<text text-anchor="middle" font-family="monospace" x="336" y="212" fill="black" font-size="1em">e</text>
<text text-anchor="middle" font-family="monospace" x="240" y="324" fill="black" font-size="1em">o</text>
<text text-anchor="middle" font-family="monospace" x="128" y="372" fill="black" font-size="1em">o</text>
<text text-anchor="middle" font-family="monospace" x="168" y="372" fill="black" font-size="1em">t</text>
<text text-anchor="middle" font-family="monospace" x="368" y="324" fill="black" font-size="1em">o</text>
<text text-anchor="middle" font-family="monospace" x="56" y="340" fill="black" font-size="1em">S</text>
<text text-anchor="middle" font-family="monospace" x="480" y="340" fill="black" font-size="1em">e</text>
<text text-anchor="middle" font-family="monospace" x="184" y="180" fill="black" font-size="1em">i</text>
<text text-anchor="middle" font-family="monospace" x="432" y="180" fill="black" font-size="1em">i</text>
<text text-anchor="middle" font-family="monospace" x="464" y="180" fill="black" font-size="1em">l</text>
<text text-anchor="middle" font-family="monospace" x="216" y="196" fill="black" font-size="1em">a</text>
<text text-anchor="middle" font-family="monospace" x="232" y="324" fill="black" font-size="1em">i</text>
<text text-anchor="middle" font-family="monospace" x="48" y="372" fill="black" font-size="1em">r</text>
<text text-anchor="middle" font-family="monospace" x="112" y="148" fill="black" font-size="1em">E</text>
<text text-anchor="middle" font-family="monospace" x="136" y="148" fill="black" font-size="1em">i</text>
<text text-anchor="middle" font-family="monospace" x="472" y="196" fill="black" font-size="1em">t</text>
<text text-anchor="middle" font-family="monospace" x="56" y="324" fill="black" font-size="1em">p</text>
</g>
</svg>
